<svg width="120" height="120" viewBox="0 0 120 120" fill="none" xmlns="http://www.w3.org/2000/svg">
<path opacity="0.4" d="M105.203 35.95L60.0027 62.1L14.8027 35.95C16.8027 32.25 19.7027 29 22.9527 27.2L49.6527 12.4C55.3527 9.2 64.6527 9.2 70.3527 12.4L97.0527 27.2C100.303 29 103.203 32.25 105.203 35.95Z" fill="#74787C"/>
<path opacity="0.6" d="M60.0031 62.0997V110C56.2531 110 52.5031 109.2 49.6531 107.6L22.9531 92.7997C16.9031 89.4497 11.9531 81.0497 11.9531 74.1497V45.8497C11.9531 42.6497 13.0531 39.1497 14.8031 35.9497L60.0031 62.0997Z" fill="#74787C"/>
<path d="M108.052 45.8497V74.1497C108.052 81.0497 103.102 89.4497 97.052 92.7997L70.352 107.6C67.502 109.2 63.752 110 60.002 110V62.0997L105.202 35.9497C106.952 39.1497 108.052 42.6497 108.052 45.8497Z" fill="#74787C"/>
</svg>
