<svg width="40" height="40" viewBox="0 0 40 40" fill="none" xmlns="http://www.w3.org/2000/svg">
<path d="M20 24.5833C19.3167 24.5833 18.75 24.0167 18.75 23.3333V15C18.75 14.3167 19.3167 13.75 20 13.75C20.6833 13.75 21.25 14.3167 21.25 15V23.3333C21.25 24.0167 20.6833 24.5833 20 24.5833Z" fill="#F4B740"/>
<path d="M19.9997 29.9996C19.8997 29.9996 19.783 29.9829 19.6663 29.9663C19.5663 29.9496 19.4663 29.9163 19.3663 29.8663C19.2663 29.8329 19.1663 29.7829 19.0663 29.7163C18.983 29.6496 18.8997 29.5829 18.8163 29.5163C18.5163 29.1996 18.333 28.7663 18.333 28.3329C18.333 27.8996 18.5163 27.4663 18.8163 27.1496C18.8997 27.0829 18.983 27.0163 19.0663 26.9496C19.1663 26.8829 19.2663 26.8329 19.3663 26.7996C19.4663 26.7496 19.5663 26.7163 19.6663 26.6996C19.883 26.6496 20.1163 26.6496 20.3163 26.6996C20.433 26.7163 20.533 26.7496 20.633 26.7996C20.733 26.8329 20.833 26.8829 20.933 26.9496C21.0163 27.0163 21.0997 27.0829 21.183 27.1496C21.483 27.4663 21.6663 27.8996 21.6663 28.3329C21.6663 28.7663 21.483 29.1996 21.183 29.5163C21.0997 29.5829 21.0163 29.6496 20.933 29.7163C20.833 29.7829 20.733 29.8329 20.633 29.8663C20.533 29.9163 20.433 29.9496 20.3163 29.9663C20.2163 29.9829 20.0997 29.9996 19.9997 29.9996Z" fill="#F4B740"/>
<path d="M30.1004 36.9331H9.90045C6.65045 36.9331 4.16711 35.7497 2.90045 33.6164C1.65045 31.4831 1.81711 28.7331 3.40045 25.8831L13.5004 7.71641C15.1671 4.71641 17.4671 3.06641 20.0004 3.06641C22.5338 3.06641 24.8338 4.71641 26.5004 7.71641L36.6004 25.8997C38.1838 28.7497 38.3671 31.4831 37.1004 33.6331C35.8338 35.7497 33.3504 36.9331 30.1004 36.9331ZM20.0004 5.56641C18.4338 5.56641 16.9004 6.76641 15.6838 8.93307L5.60045 27.1164C4.46711 29.1497 4.28378 31.0164 5.06711 32.3664C5.85045 33.7164 7.58378 34.4497 9.91711 34.4497H30.1171C32.4504 34.4497 34.1671 33.7164 34.9671 32.3664C35.7671 31.0164 35.5671 29.1664 34.4338 27.1164L24.3171 8.93307C23.1004 6.76641 21.5671 5.56641 20.0004 5.56641Z" fill="#F4B740"/>
</svg>
